Coordinates
version=1
nRows=10
nColumns=63
inDegrees=yes

Units are S.I. units (second, meters, Newtons, ...)
If the header above contains a line with 'inDegrees', this indicates whether rotational values are in degrees (yes) or radians (no).

endheader
time	pelvis_tilt	pelvis_list	pelvis_rotation	pelvis_tx	pelvis_ty	pelvis_tz	hip_flexion_r	hip_adduction_r	hip_rotation_r	knee_angle_r	knee_angle_r_beta	ankle_angle_r	subtalar_angle_r	mtp_angle_r	hip_flexion_l	hip_adduction_l	hip_rotation_l	knee_angle_l	knee_angle_l_beta	ankle_angle_l	subtalar_angle_l	mtp_angle_l	L5_S1_Flex_Ext	L5_S1_Lat_Bending	L5_S1_axial_rotation	L4_L5_Flex_Ext	L4_L5_Lat_Bending	L4_L5_axial_rotation	L3_L4_Flex_Ext	L3_L4_Lat_Bending	L3_L4_axial_rotation	L2_L3_Flex_Ext	L2_L3_Lat_Bending	L2_L3_axial_rotation	L1_L2_Flex_Ext	L1_L2_Lat_Bending	L1_L2_axial_rotation	L1_T12_Flex_Ext	L1_T12_Lat_Bending	L1_T12_axial_rotation	Abs_r3	Abs_r2	Abs_r1	Abs_t1	Abs_t2	neck_flexion	neck_bending	neck_rotation	arm_flex_r	arm_add_r	arm_rot_r	elbow_flex_r	pro_sup_r	wrist_flex_r	wrist_dev_r	arm_flex_l	arm_add_l	arm_rot_l	elbow_flex_l	pro_sup_l	wrist_flex_l	wrist_dev_l
      0.00000000	     -1.35168653	     -2.78905831	    100.92008791	      0.26375076	      0.48961181	      0.84234392	     -6.55037769	     -0.27042772	     -9.15913774	      3.87169271	      0.06757379	     26.41576536	      2.83131895	      0.00000000	     -4.13059604	      0.89092906	     13.11242329	      1.39861290	      0.02441040	     28.30601877	     -1.09310153	      0.00000000	      0.13778093	     -0.16948790	     -0.24793522	      0.25587297	     -0.22541891	     -0.26343117	      0.22636029	     -0.41209289	     -0.26343117	      0.15746982	     -0.41209289	     -0.21694331	      0.12794337	     -0.34561973	     -0.20144736	      0.07872802	     -0.26253676	     -0.18595141	      0.98415540	     -1.91728105	     -1.37894129	      0.00000000	      0.00000000	     23.44013806	     -0.38944052	     -2.65416992	      2.64297125	    -19.32734264	     77.53207047	     24.35782204	     48.47852331	     12.18856543	     -6.69472630	     -0.26613087	    -23.27597306	     67.62414104	     27.98503611	     66.94526585	     -8.18585066	    -13.86433831
      0.01666667	     -1.18802497	     -2.65280324	    102.14553093	      0.26281939	      0.48876779	      0.84383610	     -6.98368187	      0.31545297	     -3.42121172	      2.75060313	      0.04800708	     25.13175384	     -6.48552062	      0.00000000	     -4.25509520	      0.63037654	     19.41979666	      1.06482776	      0.01858475	     26.89554965	     -8.16481193	      0.00000000	      0.13420220	     -0.19549752	     -0.72407671	      0.24922691	     -0.26001170	     -0.76933151	      0.22048080	     -0.47533266	     -0.76933151	      0.15337970	     -0.47533266	     -0.63356712	      0.12462016	     -0.39865854	     -0.58831233	      0.07668314	     -0.30282565	     -0.54305753	      0.95859291	     -2.21150701	     -4.02709745	      0.00000000	      0.00000000	     22.95949510	      0.76832666	     -3.28980096	      4.20672764	    -18.97396040	     81.92470196	     24.07405293	     47.65524905	     12.23415349	     -7.54039055	     -0.66241970	    -22.66194219	     71.06922369	     25.84028180	     59.62176924	     -7.35687184	    -15.52270276
      0.03333333	     -1.04422229	     -2.65327081	    103.15298229	      0.26193957	      0.48802162	      0.84560328	     -7.01017722	      0.62106559	     -1.38812486	      2.29148755	      0.03999400	     24.56866443	    -10.57402558	      0.00000000	     -4.11294433	      0.43429254	     22.55023049	      0.97330285	      0.01698734	     26.18877091	    -11.21657699	      0.00000000	      0.12729418	     -0.20959730	     -1.04067862	      0.23639802	     -0.27876440	     -1.10572104	      0.20913161	     -0.50961486	     -1.10572104	      0.14548452	     -0.50961486	     -0.91059379	      0.11820538	     -0.42741081	     -0.84555138	      0.07273589	     -0.32466621	     -0.78050897	      0.90924960	     -2.37100653	     -5.78794229	      0.00000000	      0.00000000	     22.73586960	      1.44417033	     -3.85113565	      5.20486097	    -18.76002280	     84.45121248	     23.99978489	     46.25335349	     12.34319146	     -7.90288003	     -0.55846652	    -22.23570453	     74.15285817	     24.53489103	     54.55969076	     -6.77128025	    -16.28918699
      0.05000000	     -0.92392278	     -2.71143180	    103.73238387	      0.26143865	      0.48748742	      0.84741856	     -6.76676316	      0.75471320	     -1.59081530	      2.31714239	      0.04044176	     24.78339290	    -10.99841870	      0.00000000	     -3.88019145	      0.30631392	     23.14145230	      0.99939325	      0.01744270	     26.23895581	    -11.16725322	      0.00000000	      0.10749415	     -0.21383484	     -1.18215341	      0.19962739	     -0.28440033	     -1.25603800	      0.17660214	     -0.51991802	     -1.25603800	      0.12285506	     -0.51991802	     -1.03438424	      0.09981907	     -0.43605200	     -0.96049965	      0.06142216	     -0.33123016	     -0.88661506	      0.76781996	     -2.41894243	     -6.57478264	      0.00000000	      0.00000000	     22.79319901	      1.93254815	     -4.27790060	      5.55206806	    -18.64865889	     84.31363150	     24.00547164	     46.00161734	     12.30583557	     -7.73864188	     -0.49473665	    -21.85254466	     74.16269286	     23.86379756	     54.09368476	     -6.60638423	    -15.75508341
      0.06666667	     -0.80477440	     -2.78499652	    104.57241377	      0.26064219	      0.48702803	      0.84903181	     -6.67370987	      0.96125193	     -1.27960068	      2.14681118	      0.03746892	     24.40885592	    -12.54084449	      0.00000000	     -3.62501316	      0.18290629	     25.73176039	      1.02038440	      0.01780907	     25.59747005	    -13.67242724	      0.00000000	      0.09234158	     -0.20700470	     -1.32786131	      0.17148754	     -0.27531625	     -1.41085264	      0.15170798	     -0.50331123	     -1.41085264	      0.10553719	     -0.50331123	     -1.16187864	      0.08574839	     -0.42212399	     -1.07888731	      0.05276398	     -0.32065028	     -0.99589598	      0.65958664	     -2.34167857	     -7.38516624	      0.00000000	      0.00000000	     22.86149820	      2.04023554	     -4.17591723	      5.86210703	    -18.60704660	     84.67952332	     24.13308571	     43.99082143	     12.00403056	     -7.21144936	      0.22947812	    -21.79258421	     76.72335812	     23.68039616	     51.35512354	     -6.31452228	    -15.75179987
      0.08333333	     -0.69458459	     -2.90291879	    104.91559303	      0.26030095	      0.48667214	      0.85048228	     -6.41250485	      1.05764663	     -1.27820296	      2.22508150	      0.03883500	     24.24280713	    -13.04259920	      0.00000000	     -3.32514603	      0.12295998	     26.02414607	      1.12211319	      0.01958457	     25.67983457	    -13.57715302	      0.00000000	      0.07885502	     -0.19282604	     -1.32917606	      0.14644166	     -0.25645863	     -1.41224956	      0.12955092	     -0.46883723	     -1.41224956	      0.09012341	     -0.46883723	     -1.16302905	      0.07322477	     -0.39321086	     -1.07995555	      0.04505776	     -0.29868753	     -0.99688204	      0.56325354	     -2.18128670	     -7.39247849	      0.00000000	      0.00000000	     23.06596088	      1.95782486	     -4.13704197	      5.94900941	    -18.57645249	     84.29744353	     24.05657061	     43.10844783	     11.73205603	     -6.84762844	      0.95789132	    -21.65246855	     77.89539867	     23.65075048	     50.90486207	     -6.36241749	    -15.22260739
      0.10000000	     -0.59507852	     -3.00032322	    105.33495987	      0.25974162	      0.48636455	      0.85181062	     -6.15017053	      1.12577059	     -2.52321557	      2.43109461	      0.04243061	     24.53946994	    -11.83814887	      0.00000000	     -3.03082381	      0.07992914	     26.79868195	      1.24809153	      0.02178331	     25.66058685	    -14.08534917	      0.00000000	      0.06570911	     -0.17381156	     -1.34444896	      0.12202840	     -0.23116938	     -1.42847702	      0.10795350	     -0.42260543	     -1.42847702	      0.07509895	     -0.42260543	     -1.17639284	      0.06101748	     -0.35443654	     -1.09236478	      0.03754619	     -0.26923411	     -1.00833672	      0.46935364	     -1.96619114	     -7.47742178	      0.00000000	      0.00000000	     23.30916548	      1.76803521	     -3.93450956	      6.03203341	    -18.53402821	     83.88560786	     23.94339519	     43.23193183	     11.18805718	     -6.20126786	      1.55765756	    -21.46833147	     78.61550297	     23.60759977	     51.18188434	     -6.61197171	    -14.91432342
      0.11666667	     -0.51160097	     -3.09221428	    105.53578464	      0.25933769	      0.48604078	      0.85271383	     -5.95871061	      1.17164294	     -2.58553120	      2.51517473	      0.04389808	     24.37546117	    -12.04020513	      0.00000000	     -2.76260643	      0.07247668	     26.71739240	      1.39139133	      0.02428436	     25.97548297	    -13.73075354	      0.00000000	      0.06582942	     -0.15453844	     -1.33805522	      0.12225181	     -0.20553612	     -1.42168367	      0.10815115	     -0.37574475	     -1.42168367	      0.07523644	     -0.37574475	     -1.17079832	      0.06112920	     -0.31513478	     -1.08716987	      0.03761493	     -0.23938004	     -1.00354142	      0.47021293	     -1.74816970	     -7.44186172	      0.00000000	      0.00000000	     23.53088421	      1.44344167	     -3.78465801	      6.25596572	    -18.41044927	     84.21644154	     23.64253177	     43.97524488	     10.46509221	     -5.52288864	      1.99081345	    -21.26077680	     79.24251486	     23.56066196	     51.69303434	     -7.09255347	    -14.67583453
      0.13333333	     -0.48259379	     -3.15643056	    105.77290164	      0.25891060	      0.48574102	      0.85341186	     -5.80498230	      1.15343351	     -3.45661783	      2.64387603	      0.04614434	     24.64131412	    -11.05756314	      0.00000000	     -2.50764767	      0.11533437	     26.60188805	      1.56690790	      0.02734770	     26.40109023	    -13.33284401	      0.00000000	      0.07131918	     -0.14312091	     -1.37422072	      0.13244684	     -0.19035080	     -1.46010952	      0.11717027	     -0.34798417	     -1.46010952	      0.08151069	     -0.34798417	     -1.20244313	      0.06622699	     -0.29185215	     -1.11655434	      0.04075178	     -0.22169428	     -1.03066554	      0.50942574	     -1.61901230	     -7.64300340	      0.00000000	      0.00000000	     23.73816641	      1.15756665	     -3.65516350	      6.68590692	    -18.16744639	     84.97088330	     23.15279923	     46.72107022	      9.55626064	     -5.04020017	      2.14820706	    -21.02361999	     79.37709612	     23.35399105	     52.81299762	     -7.61178275	    -14.52127361
      0.15000000	     -0.54032190	     -3.15106741	    105.92331674	      0.25871607	      0.48555496	      0.85386341	     -5.75654903	      1.04927830	     -4.71001921	      2.77072262	      0.04835823	     25.20595741	     -9.32637906	      0.00000000	     -2.35409502	      0.22979439	     26.28539457	      1.75148101	      0.03056911	     26.86684940	    -12.83460646	      0.00000000	      0.07106159	     -0.14528660	     -1.42146437	      0.13196847	     -0.19323118	     -1.51030590	      0.11674708	     -0.35324985	     -1.51030590	      0.08121629	     -0.35324985	     -1.24378133	      0.06598779	     -0.29626844	     -1.15493980	      0.04060459	     -0.22504895	     -1.06609828	      0.50758580	     -1.64351110	     -7.90575840	      0.00000000	      0.00000000	     23.88871043	      0.97571084	     -3.59445366	      7.29943099	    -17.80978458	     85.93880626	     22.58452320	     51.25341046	      8.47445383	     -4.68842896	      2.18347298	    -20.81286289	     79.70399889	     23.06635729	     53.57090328	     -8.42900711	    -14.41358891
